<svg fill="none" height="32" viewBox="0 0 32 32" width="32" xmlns="http://www.w3.org/2000/svg"><path d="m2 2 14 3 14-3v28l-14-3-14 3z" fill="#d3883e"/><path d="m30 2h-28l14 14z" fill="#f3ad61"/><path d="m30 30h-28l14-14z" fill="#b97028"/><path d="m5 5h22v4.16406l-9 12.83594-13-3 .00009-3 1.49991-3-1.49982-3z" fill="#aeddff"/><path d="m24.6669 10.1139c.55-.67948 1.3908-1.1139 2.3331-1.1139v6c-.7725 0-1.4768-.292-2.0086-.7716-.1167 1.5502-1.4114 2.7716-2.9914 2.7716-1.6569 0-3-1.3431-3-3s1.3431-3 3-3c.088 0 .1751.0038.2611.0112.3442-.604.994-1.0112 1.7389-1.0112.2339 0 .4583.0401.6669.1139z" fill="#fff"/><path d="m5 16v-6c.98142 0 1.85278.4713 2.40011 1.1999.16711-.1255.37482-.1999.59989-.1999.55228 0 1 .4477 1 1 1.1046 0 2 .8954 2 2s-.8954 2-2 2z" fill="#fff"/><path d="m8 17.4999-3 1.5001v8h22v-15c-1.5 0-2.5.5-4 2l-4.5 4.5c-1 1.0001-1.5 1.5-2.5 1l-4-2.0001c-1.6-.8-3.16667-.5-4 0z" fill="#14a085"/><path d="m27 26.8115v.1885h-22v-.1886c2.56366-2.5794 6.538-4.3114 11-4.3114 4.4619 0 8.4363 1.732 11 4.3115z" fill="#96c34a"/><path d="m19.0561 10.1849c.2616-.1171.4439-.37972.4439-.6849s-.1823-.56779-.4439-.6849c.168-.23222.1946-.55079.042-.81508-.1526-.26431-.4418-.40059-.7269-.37119.0294-.28512-.1069-.57429-.3712-.72688s-.5829-.12604-.8151.04198c-.1171-.26164-.3797-.44393-.6849-.44393s-.5678.1823-.6849.44394c-.2322-.16803-.5508-.19458-.8151-.04199s-.4006.44175-.3712.72687c-.2851-.02937-.5742.10692-.7268.3712s-.1261.58284.0419.81506c-.2616.1171-.4439.37972-.4439.68492s.1823.5678.4439.6849c-.168.2322-.1945.5508-.042.8151.1526.2643.4418.4006.7269.3712-.0294.2851.1069.5743.3712.7269s.5829.126.8151-.042c.1171.2616.3797.4439.6849.4439s.5678-.1823.6849-.4439c.2322.168.5508.1946.8151.042s.4006-.4418.3712-.7269c.2851.0294.5743-.1069.7269-.3712s.126-.5829-.042-.8151z" fill="#ff822d"/><path d="m18.7049 9.49989c0 1.21751-.987 2.20451-2.2045 2.20451s-2.2045-.987-2.2045-2.20451c0-1.2175.987-2.20448 2.2045-2.20448s2.2045.98698 2.2045 2.20448z" fill="#f9c23c"/></svg>